<mxfile host="app.diagrams.net" modified="2023-04-02T12:36:07.956Z" agent="Mozilla/5.0 (Windows NT 10.0; Win64; x64; rv:109.0) Gecko/20100101 Firefox/111.0" etag="yuxnkg8eiVl_7LEI9Wp_" version="21.1.2" type="device">
  <diagram id="_Gi0OZtWfn4fuSM_ZZYW" name="overview">
    <mxGraphModel dx="1050" dy="566" grid="1" gridSize="10" guides="1" tooltips="1" connect="1" arrows="1" fold="1" page="1" pageScale="1" pageWidth="1100" pageHeight="850" math="0" shadow="0">
      <root>
        <mxCell id="0" />
        <mxCell id="1" parent="0" />
        <mxCell id="zuWqlm3LT84nwOS6TX2s-2" value="" style="rounded=0;whiteSpace=wrap;html=1;fillColor=none;dashed=1;dashPattern=1 1;" parent="1" vertex="1">
          <mxGeometry x="610" y="220" width="120" height="220" as="geometry" />
        </mxCell>
        <mxCell id="zuWqlm3LT84nwOS6TX2s-12" value="" style="rounded=0;whiteSpace=wrap;html=1;fillColor=none;strokeColor=default;dashed=1;dashPattern=1 1;" parent="1" vertex="1">
          <mxGeometry x="100" y="560" width="360" height="190" as="geometry" />
        </mxCell>
        <mxCell id="zuWqlm3LT84nwOS6TX2s-3" value="" style="rounded=0;whiteSpace=wrap;html=1;dashed=1;fillColor=none;dashPattern=1 1;" parent="1" vertex="1">
          <mxGeometry x="60" y="120" width="440" height="350" as="geometry" />
        </mxCell>
        <mxCell id="lWAj96Npts_Hkw9bGxiM-5" style="edgeStyle=orthogonalEdgeStyle;rounded=0;orthogonalLoop=1;jettySize=auto;html=1;exitX=1;exitY=0.5;exitDx=0;exitDy=0;entryX=0;entryY=0.25;entryDx=0;entryDy=0;startArrow=classic;startFill=1;endArrow=none;endFill=0;" parent="1" source="lWAj96Npts_Hkw9bGxiM-1" target="lWAj96Npts_Hkw9bGxiM-4" edge="1">
          <mxGeometry relative="1" as="geometry" />
        </mxCell>
        <mxCell id="lWAj96Npts_Hkw9bGxiM-1" value="Motor A" style="rounded=0;whiteSpace=wrap;html=1;" parent="1" vertex="1">
          <mxGeometry x="90" y="320" width="70" height="30" as="geometry" />
        </mxCell>
        <mxCell id="lWAj96Npts_Hkw9bGxiM-6" style="edgeStyle=orthogonalEdgeStyle;rounded=0;orthogonalLoop=1;jettySize=auto;html=1;exitX=1;exitY=0.5;exitDx=0;exitDy=0;entryX=0;entryY=0.75;entryDx=0;entryDy=0;startArrow=classic;startFill=1;endArrow=none;endFill=0;" parent="1" source="lWAj96Npts_Hkw9bGxiM-3" target="lWAj96Npts_Hkw9bGxiM-4" edge="1">
          <mxGeometry relative="1" as="geometry" />
        </mxCell>
        <mxCell id="lWAj96Npts_Hkw9bGxiM-3" value="Motor B" style="rounded=0;whiteSpace=wrap;html=1;" parent="1" vertex="1">
          <mxGeometry x="90" y="370" width="70" height="30" as="geometry" />
        </mxCell>
        <mxCell id="lWAj96Npts_Hkw9bGxiM-4" value="Motor controller" style="rounded=0;whiteSpace=wrap;html=1;" parent="1" vertex="1">
          <mxGeometry x="200" y="340" width="70" height="40" as="geometry" />
        </mxCell>
        <mxCell id="lWAj96Npts_Hkw9bGxiM-8" style="edgeStyle=orthogonalEdgeStyle;rounded=0;orthogonalLoop=1;jettySize=auto;html=1;exitX=0;exitY=0.25;exitDx=0;exitDy=0;entryX=1;entryY=0.25;entryDx=0;entryDy=0;" parent="1" source="lWAj96Npts_Hkw9bGxiM-7" target="lWAj96Npts_Hkw9bGxiM-4" edge="1">
          <mxGeometry relative="1" as="geometry" />
        </mxCell>
        <mxCell id="lWAj96Npts_Hkw9bGxiM-10" value="PWM" style="edgeLabel;html=1;align=center;verticalAlign=middle;resizable=0;points=[];fontSize=10;" parent="lWAj96Npts_Hkw9bGxiM-8" vertex="1" connectable="0">
          <mxGeometry x="0.1013" relative="1" as="geometry">
            <mxPoint x="3" as="offset" />
          </mxGeometry>
        </mxCell>
        <mxCell id="lWAj96Npts_Hkw9bGxiM-9" style="edgeStyle=orthogonalEdgeStyle;rounded=0;orthogonalLoop=1;jettySize=auto;html=1;exitX=0;exitY=0.75;exitDx=0;exitDy=0;entryX=1;entryY=0.75;entryDx=0;entryDy=0;" parent="1" source="lWAj96Npts_Hkw9bGxiM-7" target="lWAj96Npts_Hkw9bGxiM-4" edge="1">
          <mxGeometry relative="1" as="geometry" />
        </mxCell>
        <mxCell id="lWAj96Npts_Hkw9bGxiM-11" value="PWM" style="edgeLabel;html=1;align=center;verticalAlign=middle;resizable=0;points=[];fontSize=10;" parent="lWAj96Npts_Hkw9bGxiM-9" vertex="1" connectable="0">
          <mxGeometry x="-0.135" relative="1" as="geometry">
            <mxPoint x="-4" as="offset" />
          </mxGeometry>
        </mxCell>
        <mxCell id="zuWqlm3LT84nwOS6TX2s-9" style="edgeStyle=orthogonalEdgeStyle;rounded=0;orthogonalLoop=1;jettySize=auto;html=1;exitX=0.5;exitY=1;exitDx=0;exitDy=0;entryX=0.5;entryY=0;entryDx=0;entryDy=0;startArrow=classic;startFill=1;" parent="1" source="lWAj96Npts_Hkw9bGxiM-7" target="zuWqlm3LT84nwOS6TX2s-8" edge="1">
          <mxGeometry relative="1" as="geometry" />
        </mxCell>
        <mxCell id="zuWqlm3LT84nwOS6TX2s-17" style="edgeStyle=orthogonalEdgeStyle;rounded=0;orthogonalLoop=1;jettySize=auto;html=1;exitX=0.25;exitY=1;exitDx=0;exitDy=0;entryX=0.5;entryY=0;entryDx=0;entryDy=0;startArrow=classic;startFill=1;endArrow=none;endFill=0;" parent="1" source="lWAj96Npts_Hkw9bGxiM-7" target="zuWqlm3LT84nwOS6TX2s-13" edge="1">
          <mxGeometry relative="1" as="geometry" />
        </mxCell>
        <mxCell id="kXcU9BPbM3XmwH19ftqr-5" value="&lt;div&gt;PPM&lt;/div&gt;" style="edgeLabel;html=1;align=center;verticalAlign=middle;resizable=0;points=[];" vertex="1" connectable="0" parent="zuWqlm3LT84nwOS6TX2s-17">
          <mxGeometry x="0.1564" relative="1" as="geometry">
            <mxPoint x="3" as="offset" />
          </mxGeometry>
        </mxCell>
        <mxCell id="lWAj96Npts_Hkw9bGxiM-7" value="Pixhawk" style="rounded=0;whiteSpace=wrap;html=1;" parent="1" vertex="1">
          <mxGeometry x="350" y="340" width="70" height="40" as="geometry" />
        </mxCell>
        <mxCell id="lWAj96Npts_Hkw9bGxiM-13" style="edgeStyle=orthogonalEdgeStyle;rounded=0;orthogonalLoop=1;jettySize=auto;html=1;exitX=0;exitY=0.5;exitDx=0;exitDy=0;entryX=1;entryY=0.5;entryDx=0;entryDy=0;startArrow=classic;startFill=1;" parent="1" source="lWAj96Npts_Hkw9bGxiM-12" target="lWAj96Npts_Hkw9bGxiM-7" edge="1">
          <mxGeometry relative="1" as="geometry" />
        </mxCell>
        <mxCell id="lWAj96Npts_Hkw9bGxiM-14" value="serial&lt;br style=&quot;font-size: 10px;&quot;&gt;(mavlink)" style="edgeLabel;html=1;align=center;verticalAlign=middle;resizable=0;points=[];fontSize=10;" parent="lWAj96Npts_Hkw9bGxiM-13" vertex="1" connectable="0">
          <mxGeometry x="-0.2841" relative="1" as="geometry">
            <mxPoint x="-11" as="offset" />
          </mxGeometry>
        </mxCell>
        <mxCell id="lWAj96Npts_Hkw9bGxiM-12" value="Jetson Computer" style="rounded=0;whiteSpace=wrap;html=1;" parent="1" vertex="1">
          <mxGeometry x="640" y="340" width="60" height="40" as="geometry" />
        </mxCell>
        <mxCell id="lWAj96Npts_Hkw9bGxiM-17" style="edgeStyle=orthogonalEdgeStyle;rounded=0;orthogonalLoop=1;jettySize=auto;html=1;exitX=0.5;exitY=1;exitDx=0;exitDy=0;entryX=0.5;entryY=0;entryDx=0;entryDy=0;startArrow=none;startFill=0;endArrow=classic;endFill=1;" parent="1" source="lWAj96Npts_Hkw9bGxiM-15" target="lWAj96Npts_Hkw9bGxiM-16" edge="1">
          <mxGeometry relative="1" as="geometry" />
        </mxCell>
        <mxCell id="PC8OLn46aMgyR67PHGka-8" value="5V (default)" style="edgeLabel;html=1;align=center;verticalAlign=middle;resizable=0;points=[];fontSize=10;" parent="lWAj96Npts_Hkw9bGxiM-17" vertex="1" connectable="0">
          <mxGeometry x="-0.1782" y="1" relative="1" as="geometry">
            <mxPoint as="offset" />
          </mxGeometry>
        </mxCell>
        <mxCell id="lWAj96Npts_Hkw9bGxiM-15" value="Power Bank" style="rounded=0;whiteSpace=wrap;html=1;" parent="1" vertex="1">
          <mxGeometry x="350" y="140" width="70" height="30" as="geometry" />
        </mxCell>
        <mxCell id="PC8OLn46aMgyR67PHGka-3" style="edgeStyle=orthogonalEdgeStyle;rounded=0;orthogonalLoop=1;jettySize=auto;html=1;exitX=0.5;exitY=1;exitDx=0;exitDy=0;entryX=0.5;entryY=0;entryDx=0;entryDy=0;startArrow=none;startFill=0;endArrow=classic;endFill=1;" parent="1" source="lWAj96Npts_Hkw9bGxiM-16" target="PC8OLn46aMgyR67PHGka-1" edge="1">
          <mxGeometry relative="1" as="geometry" />
        </mxCell>
        <mxCell id="lWAj96Npts_Hkw9bGxiM-16" value="PD voltage (9 volts)" style="rounded=0;whiteSpace=wrap;html=1;" parent="1" vertex="1">
          <mxGeometry x="352.5" y="210" width="65" height="30" as="geometry" />
        </mxCell>
        <mxCell id="PC8OLn46aMgyR67PHGka-2" style="edgeStyle=orthogonalEdgeStyle;rounded=0;orthogonalLoop=1;jettySize=auto;html=1;exitX=0.5;exitY=1;exitDx=0;exitDy=0;entryX=0.5;entryY=0;entryDx=0;entryDy=0;startArrow=none;startFill=0;endArrow=classic;endFill=1;" parent="1" source="PC8OLn46aMgyR67PHGka-1" target="lWAj96Npts_Hkw9bGxiM-7" edge="1">
          <mxGeometry relative="1" as="geometry" />
        </mxCell>
        <mxCell id="PC8OLn46aMgyR67PHGka-5" value="5V" style="edgeLabel;html=1;align=center;verticalAlign=middle;resizable=0;points=[];fontSize=10;" parent="PC8OLn46aMgyR67PHGka-2" vertex="1" connectable="0">
          <mxGeometry x="-0.2958" y="-1" relative="1" as="geometry">
            <mxPoint as="offset" />
          </mxGeometry>
        </mxCell>
        <mxCell id="PC8OLn46aMgyR67PHGka-6" style="edgeStyle=orthogonalEdgeStyle;rounded=0;orthogonalLoop=1;jettySize=auto;html=1;exitX=0;exitY=0.5;exitDx=0;exitDy=0;entryX=0.5;entryY=0;entryDx=0;entryDy=0;fontSize=10;startArrow=none;startFill=0;endArrow=classic;endFill=1;" parent="1" source="PC8OLn46aMgyR67PHGka-1" target="lWAj96Npts_Hkw9bGxiM-4" edge="1">
          <mxGeometry relative="1" as="geometry" />
        </mxCell>
        <mxCell id="PC8OLn46aMgyR67PHGka-7" value="bypass&lt;br&gt;from PD voltage" style="edgeLabel;html=1;align=center;verticalAlign=middle;resizable=0;points=[];fontSize=10;" parent="PC8OLn46aMgyR67PHGka-6" vertex="1" connectable="0">
          <mxGeometry x="-0.3012" y="-2" relative="1" as="geometry">
            <mxPoint y="2" as="offset" />
          </mxGeometry>
        </mxCell>
        <mxCell id="PC8OLn46aMgyR67PHGka-1" value="Power Module" style="rounded=0;whiteSpace=wrap;html=1;" parent="1" vertex="1">
          <mxGeometry x="340" y="280" width="90" height="20" as="geometry" />
        </mxCell>
        <mxCell id="zuWqlm3LT84nwOS6TX2s-4" value="Text" style="text;html=1;strokeColor=none;fillColor=none;align=center;verticalAlign=middle;whiteSpace=wrap;rounded=0;dashed=1;" parent="1" vertex="1">
          <mxGeometry x="240" y="290" width="60" height="30" as="geometry" />
        </mxCell>
        <mxCell id="zuWqlm3LT84nwOS6TX2s-5" value="&lt;h1&gt;Minimal Base&lt;/h1&gt;" style="text;html=1;strokeColor=none;fillColor=none;spacing=5;spacingTop=-20;whiteSpace=wrap;overflow=hidden;rounded=0;dashed=1;" parent="1" vertex="1">
          <mxGeometry x="70" y="130" width="190" height="40" as="geometry" />
        </mxCell>
        <mxCell id="zuWqlm3LT84nwOS6TX2s-16" style="edgeStyle=orthogonalEdgeStyle;rounded=0;orthogonalLoop=1;jettySize=auto;html=1;exitX=0.5;exitY=0;exitDx=0;exitDy=0;entryX=0.5;entryY=1;entryDx=0;entryDy=0;startArrow=classic;startFill=1;" parent="1" source="zuWqlm3LT84nwOS6TX2s-6" target="zuWqlm3LT84nwOS6TX2s-15" edge="1">
          <mxGeometry relative="1" as="geometry" />
        </mxCell>
        <mxCell id="zuWqlm3LT84nwOS6TX2s-6" value="Student&#39;s Computer" style="rounded=0;whiteSpace=wrap;html=1;fillColor=default;" parent="1" vertex="1">
          <mxGeometry x="325" y="650" width="120" height="35" as="geometry" />
        </mxCell>
        <mxCell id="zuWqlm3LT84nwOS6TX2s-19" style="edgeStyle=orthogonalEdgeStyle;rounded=0;orthogonalLoop=1;jettySize=auto;html=1;exitX=0.5;exitY=0;exitDx=0;exitDy=0;entryX=0.5;entryY=1;entryDx=0;entryDy=0;startArrow=none;startFill=0;endArrow=classic;endFill=1;dashed=1;" parent="1" source="zuWqlm3LT84nwOS6TX2s-7" target="zuWqlm3LT84nwOS6TX2s-13" edge="1">
          <mxGeometry relative="1" as="geometry" />
        </mxCell>
        <mxCell id="zuWqlm3LT84nwOS6TX2s-23" value="RF&lt;br&gt;(mavlink)" style="edgeLabel;html=1;align=center;verticalAlign=middle;resizable=0;points=[];" parent="zuWqlm3LT84nwOS6TX2s-19" vertex="1" connectable="0">
          <mxGeometry x="0.1635" y="-2" relative="1" as="geometry">
            <mxPoint x="-2" y="-15" as="offset" />
          </mxGeometry>
        </mxCell>
        <mxCell id="zuWqlm3LT84nwOS6TX2s-7" value="RC Controller" style="rounded=0;whiteSpace=wrap;html=1;fillColor=default;" parent="1" vertex="1">
          <mxGeometry x="230" y="650" width="80" height="35" as="geometry" />
        </mxCell>
        <mxCell id="zuWqlm3LT84nwOS6TX2s-18" style="edgeStyle=orthogonalEdgeStyle;rounded=0;orthogonalLoop=1;jettySize=auto;html=1;exitX=0.5;exitY=1;exitDx=0;exitDy=0;entryX=0.5;entryY=0;entryDx=0;entryDy=0;startArrow=classic;startFill=1;endArrow=classic;endFill=1;dashed=1;" parent="1" source="zuWqlm3LT84nwOS6TX2s-8" target="zuWqlm3LT84nwOS6TX2s-15" edge="1">
          <mxGeometry relative="1" as="geometry" />
        </mxCell>
        <mxCell id="zuWqlm3LT84nwOS6TX2s-22" value="RF&lt;br&gt;(mavlink)" style="edgeLabel;html=1;align=center;verticalAlign=middle;resizable=0;points=[];" parent="zuWqlm3LT84nwOS6TX2s-18" vertex="1" connectable="0">
          <mxGeometry x="0.2167" y="3" relative="1" as="geometry">
            <mxPoint x="-3" y="-13" as="offset" />
          </mxGeometry>
        </mxCell>
        <mxCell id="zuWqlm3LT84nwOS6TX2s-8" value="Telemetry" style="rounded=0;whiteSpace=wrap;html=1;" parent="1" vertex="1">
          <mxGeometry x="350" y="420" width="70" height="30" as="geometry" />
        </mxCell>
        <mxCell id="zuWqlm3LT84nwOS6TX2s-11" value="&lt;h1&gt;External Control (optional)&lt;/h1&gt;" style="text;html=1;strokeColor=none;fillColor=none;spacing=5;spacingTop=-20;whiteSpace=wrap;overflow=hidden;rounded=0;" parent="1" vertex="1">
          <mxGeometry x="115" y="700" width="330" height="40" as="geometry" />
        </mxCell>
        <mxCell id="zuWqlm3LT84nwOS6TX2s-13" value="RC Reciever" style="rounded=0;whiteSpace=wrap;html=1;" parent="1" vertex="1">
          <mxGeometry x="230" y="420" width="80" height="30" as="geometry" />
        </mxCell>
        <mxCell id="zuWqlm3LT84nwOS6TX2s-15" value="Telemetry" style="rounded=0;whiteSpace=wrap;html=1;" parent="1" vertex="1">
          <mxGeometry x="350" y="590" width="70" height="30" as="geometry" />
        </mxCell>
        <mxCell id="zuWqlm3LT84nwOS6TX2s-28" value="&lt;h1&gt;Jetson&lt;/h1&gt;" style="text;html=1;strokeColor=none;fillColor=none;spacing=5;spacingTop=-20;whiteSpace=wrap;overflow=hidden;rounded=0;" parent="1" vertex="1">
          <mxGeometry x="620" y="390" width="95" height="40" as="geometry" />
        </mxCell>
        <mxCell id="zuWqlm3LT84nwOS6TX2s-29" value="" style="endArrow=none;html=1;rounded=0;dashed=1;" parent="1" edge="1">
          <mxGeometry width="50" height="50" relative="1" as="geometry">
            <mxPoint x="600" y="130" as="sourcePoint" />
            <mxPoint x="650" y="130" as="targetPoint" />
          </mxGeometry>
        </mxCell>
        <mxCell id="zuWqlm3LT84nwOS6TX2s-30" value="Wireless" style="text;html=1;strokeColor=none;fillColor=none;align=left;verticalAlign=middle;whiteSpace=wrap;rounded=0;dashed=1;dashPattern=1 1;" parent="1" vertex="1">
          <mxGeometry x="660" y="120" width="60" height="20" as="geometry" />
        </mxCell>
        <mxCell id="zuWqlm3LT84nwOS6TX2s-33" value="" style="endArrow=none;html=1;rounded=0;" parent="1" edge="1">
          <mxGeometry width="50" height="50" relative="1" as="geometry">
            <mxPoint x="600" y="150" as="sourcePoint" />
            <mxPoint x="650" y="150" as="targetPoint" />
          </mxGeometry>
        </mxCell>
        <mxCell id="zuWqlm3LT84nwOS6TX2s-34" value="Physical" style="text;html=1;strokeColor=none;fillColor=none;align=left;verticalAlign=middle;whiteSpace=wrap;rounded=0;dashed=1;dashPattern=1 1;" parent="1" vertex="1">
          <mxGeometry x="660" y="140" width="60" height="20" as="geometry" />
        </mxCell>
        <mxCell id="kXcU9BPbM3XmwH19ftqr-3" style="edgeStyle=orthogonalEdgeStyle;rounded=0;orthogonalLoop=1;jettySize=auto;html=1;exitX=0.5;exitY=1;exitDx=0;exitDy=0;entryX=0.5;entryY=0;entryDx=0;entryDy=0;" edge="1" parent="1" source="kXcU9BPbM3XmwH19ftqr-2" target="lWAj96Npts_Hkw9bGxiM-12">
          <mxGeometry relative="1" as="geometry" />
        </mxCell>
        <mxCell id="kXcU9BPbM3XmwH19ftqr-2" value="Power Bank" style="rounded=0;whiteSpace=wrap;html=1;" vertex="1" parent="1">
          <mxGeometry x="635" y="250" width="70" height="30" as="geometry" />
        </mxCell>
        <mxCell id="kXcU9BPbM3XmwH19ftqr-4" value="5V (default)" style="edgeLabel;html=1;align=center;verticalAlign=middle;resizable=0;points=[];fontSize=10;" vertex="1" connectable="0" parent="1">
          <mxGeometry x="670" y="310" as="geometry" />
        </mxCell>
        <mxCell id="kXcU9BPbM3XmwH19ftqr-6" value="&lt;div&gt;PAYLOAD&lt;/div&gt;" style="text;html=1;strokeColor=none;fillColor=none;align=center;verticalAlign=middle;whiteSpace=wrap;rounded=0;" vertex="1" parent="1">
          <mxGeometry x="640" y="220" width="60" height="30" as="geometry" />
        </mxCell>
      </root>
    </mxGraphModel>
  </diagram>
</mxfile>
